<svg xmlns="http://www.w3.org/2000/svg" version="1.1" xmlns:xlink="http://www.w3.org/1999/xlink" xmlns:svgjs="http://svgjs.com/svgjs" width="1440" height="1000" preserveAspectRatio="none" viewBox="0 0 1440 1000"><g mask="url(&quot;#SvgjsMask1010&quot;)" fill="none"><rect width="1440" height="1000" x="0" y="0" fill="rgba(0, 87, 177, 1)"></rect><path d="M0,664.942C127.012,695.493,266.218,655.858,375.351,584.057C483.968,512.595,570.715,399.864,596.57,272.444C620.695,153.55,541.634,43.621,508.704,-73.141C480.743,-172.287,470.657,-273.572,417.667,-361.911C356.652,-463.628,295.329,-584.783,181.595,-618.456C67.845,-652.134,-49.422,-583.59,-156.151,-531.8C-249.288,-486.606,-329.195,-421.999,-392.334,-339.959C-452.758,-261.446,-479.778,-167.831,-509.096,-73.197C-543.853,38.992,-629.428,158.338,-579.67,264.727C-529.85,371.248,-371.615,360.852,-274.843,427.665C-173.185,497.852,-120.108,636.052,0,664.942" fill="#00468e"></path><path d="M1440 1491.75C1534.807 1512.3200000000002 1639.576 1489.887 1719.386 1434.734 1798.241 1380.241 1845.597 1288.755 1868.453 1195.6680000000001 1889.123 1111.486 1863.627 1025.925 1840.261 942.451 1819.5230000000001 868.367 1784.903 802.4010000000001 1740.737 739.4100000000001 1691.954 669.8340000000001 1651.255 582.114 1570.055 557.072 1488.736 531.994 1405.444 581.1890000000001 1325.921 611.4839999999999 1252.181 639.577 1178.661 669.219 1124.657 726.754 1069.2939999999999 785.738 1033.641 859.947 1018.177 939.351 1002.177 1021.504 995.582 1111.163 1035.461 1184.747 1074.527 1256.83 1163.681 1278.7730000000001 1228.991 1328.337 1301.3220000000001 1383.229 1351.264 1472.498 1440 1491.75" fill="#0068d4"></path></g><defs><mask id="SvgjsMask1010"><rect width="1440" height="1000" fill="#ffffff"></rect></mask></defs></svg>